<svg id="Layer_1" data-name="Layer 1" xmlns="http://www.w3.org/2000/svg" viewBox="0 0 24 24"><title>icon-file-solid</title><path d="M20.92,22.5H3.08A1.58,1.58,0,0,1,1.5,20.92V3.08A1.58,1.58,0,0,1,3.08,1.5H20.92A1.58,1.58,0,0,1,22.5,3.08V20.92A1.58,1.58,0,0,1,20.92,22.5Z"/><path d="M14.62,6H6.53A.53.53,0,0,0,6,6.53V17.47a.53.53,0,0,0,.53.53H17.47a.53.53,0,0,0,.53-.53V9.38A.52.52,0,0,0,17.84,9L15,6.16A.52.52,0,0,0,14.62,6Zm2.32,10.94H7.06V7.06h6.23v3.65h3.65Zm0-7.29H14.35V7l.05,0L16.94,9.6l0,.05Z" style="fill:#fff"/></svg>