<svg id="Layer_1" data-name="Layer 1" xmlns="http://www.w3.org/2000/svg" viewBox="0 0 24 24"><title>icon-360-solid</title><path d="M20.92,22.5H3.08A1.58,1.58,0,0,1,1.5,20.92V3.08A1.58,1.58,0,0,1,3.08,1.5H20.92A1.58,1.58,0,0,1,22.5,3.08V20.92A1.58,1.58,0,0,1,20.92,22.5Z"/><rect x="3" y="3.5" width="18" height="18" style="fill:none"/><g id="rotate-left"><path d="M8.33,9.9,7.27,8.83a6,6,0,0,0-1.22,2.92H7.57A4.34,4.34,0,0,1,8.33,9.9Zm-.76,3.35H6.05a5.93,5.93,0,0,0,1.22,2.92L8.32,15.1A4.39,4.39,0,0,1,7.57,13.25Zm.76,4a6,6,0,0,0,2.92,1.21V16.92a4.41,4.41,0,0,1-1.85-.77ZM12.75,6.55V4.25L9.34,7.66,12.75,11V8.07a4.49,4.49,0,0,1,0,8.86v1.52a6,6,0,0,0,0-11.9Z" style="fill:#fff"/></g></svg>