<svg id="Layer_1" data-name="Layer 1" xmlns="http://www.w3.org/2000/svg" viewBox="0 0 24 24"><title>icon-pdf-solid</title><path d="M20.92,22.5H3.08A1.58,1.58,0,0,1,1.5,20.92V3.08A1.58,1.58,0,0,1,3.08,1.5H20.92A1.58,1.58,0,0,1,22.5,3.08V20.92A1.58,1.58,0,0,1,20.92,22.5Z"/><path d="M5,9.62H7.39a1.58,1.58,0,1,1,0,3.15H6.23v1.61H5Zm2.22,1h-1v1.08h1a.53.53,0,0,0,.57-.53A.54.54,0,0,0,7.22,10.65Z" style="fill:#fff"/><path d="M10,9.62h2a2.39,2.39,0,1,1,0,4.76H10Zm2,3.69A1.27,1.27,0,0,0,13.28,12,1.23,1.23,0,0,0,12,10.69h-.78v2.62Z" style="fill:#fff"/><path d="M15.5,9.62H19v1H16.73v.8H19v1H16.73v1.89H15.5Z" style="fill:#fff"/></svg>