<svg id="Layer_1" data-name="Layer 1" xmlns="http://www.w3.org/2000/svg" viewBox="0 0 24 24"><title>icon-spreadsheet-solid</title><path d="M20.92,22.5H3.08A1.58,1.58,0,0,1,1.5,20.92V3.08A1.58,1.58,0,0,1,3.08,1.5H20.92A1.58,1.58,0,0,1,22.5,3.08V20.92A1.58,1.58,0,0,1,20.92,22.5Z"/><polygon points="18 10.71 18 9.65 10.71 9.65 10.71 6 9.65 6 9.65 9.65 6 9.65 6 10.71 9.65 10.71 9.65 13.29 6 13.29 6 14.35 9.65 14.35 9.65 18 10.71 18 10.71 14.35 18 14.35 18 13.29 10.71 13.29 10.71 10.71 18 10.71" style="fill:#fff"/><path d="M17.47,6H6.53A.53.53,0,0,0,6,6.53V17.47a.53.53,0,0,0,.53.53H17.47a.53.53,0,0,0,.53-.53V6.53A.53.53,0,0,0,17.47,6ZM7.06,7.06h9.88v9.88H7.06Z" style="fill:#fff"/></svg>