<svg id="Layer_1" data-name="Layer 1" xmlns="http://www.w3.org/2000/svg" viewBox="0 0 24 24"><title>icon-sound-solid</title><path d="M20.92,22.5H3.08A1.58,1.58,0,0,1,1.5,20.92V3.08A1.58,1.58,0,0,1,3.08,1.5H20.92A1.58,1.58,0,0,1,22.5,3.08V20.92A1.58,1.58,0,0,1,20.92,22.5Z"/><path d="M16.4,8.2a.66.66,0,1,0-.93.93,4,4,0,0,1,0,5.74.64.64,0,0,0,0,.93.72.72,0,0,0,.46.2.62.62,0,0,0,.47-.2,5.31,5.31,0,0,0,0-7.6Z" style="fill:#fff"/><path d="M13.52,9.52a.61.61,0,0,0,0,.88,2.07,2.07,0,0,1,.66,1.6,2.49,2.49,0,0,1-.66,1.66.61.61,0,0,0,0,.88.89.89,0,0,0,.68.1.54.54,0,0,0,.2-.1,3.49,3.49,0,0,0,1-2.54c0-.11,0-.23,0-.34a3,3,0,0,0-1-2.14A.61.61,0,0,0,13.52,9.52Z" style="fill:#fff"/><path d="M8.52,10h-2a.46.46,0,0,0-.48.5v3a.47.47,0,0,0,.48.51h2l2.72,2.57a.49.49,0,0,0,.76-.4V7.83a.47.47,0,0,0-.76-.4Z" style="fill:#fff"/></svg>