<svg id="Layer_1" data-name="Layer 1" xmlns="http://www.w3.org/2000/svg" viewBox="0 0 24 24"><title>icon-360-circle</title><g style="opacity:0.7000000000000001"><circle cx="12" cy="12" r="10.5"/></g><path d="M12,1.5A10.5,10.5,0,1,1,1.5,12,10.5,10.5,0,0,1,12,1.5m0-1A11.5,11.5,0,1,0,23.5,12,11.51,11.51,0,0,0,12,.5Z" style="fill:#fff"/><path d="M12.75,6.05V3.75L9.34,7.16l3.41,3.34V7.57a4.49,4.49,0,0,1,0,8.86V18a6,6,0,0,0,0-11.9ZM8.32,16.74A6,6,0,0,0,11.25,18V16.43a4.56,4.56,0,0,1-1.85-.78Zm-.75-4H6.05a5.93,5.93,0,0,0,1.22,2.92L8.32,14.6a4.39,4.39,0,0,1-.75-1.85ZM8.33,9.4,7.27,8.33a6,6,0,0,0-1.22,2.92H7.57A4.34,4.34,0,0,1,8.33,9.4Z" style="fill:#fff"/></svg>