<svg id="Layer_1" data-name="Layer 1" xmlns="http://www.w3.org/2000/svg" viewBox="0 0 24 24"><title>icon-sound-circle</title><g style="opacity:0.7000000000000001"><circle cx="12" cy="12" r="10.5"/></g><path d="M12,1.5A10.5,10.5,0,1,1,1.5,12,10.5,10.5,0,0,1,12,1.5m0-1A11.5,11.5,0,1,0,23.5,12,11.51,11.51,0,0,0,12,.5Z" style="fill:#fff"/><path d="M16,8.52a.6.6,0,0,0-.85.85,3.69,3.69,0,0,1,0,5.26.58.58,0,0,0,0,.85.62.62,0,0,0,.43.19.52.52,0,0,0,.42-.19,4.85,4.85,0,0,0,0-7Z" style="fill:#fff"/><path d="M13.39,9.73a.55.55,0,0,0,0,.8A1.9,1.9,0,0,1,14,12a2.27,2.27,0,0,1-.61,1.52.55.55,0,0,0,0,.8.81.81,0,0,0,.63.1.4.4,0,0,0,.18-.1A3.15,3.15,0,0,0,15.14,12c0-.1,0-.21,0-.31a2.76,2.76,0,0,0-.93-2A.56.56,0,0,0,13.39,9.73Z" style="fill:#fff"/><path d="M8.81,10.17H6.94a.43.43,0,0,0-.44.46v2.76a.43.43,0,0,0,.44.46H8.81l2.49,2.36a.45.45,0,0,0,.7-.37V8.18a.44.44,0,0,0-.7-.37Z" style="fill:#fff"/></svg>