<svg id="Layer_1" data-name="Layer 1" xmlns="http://www.w3.org/2000/svg" viewBox="0 0 24 24"><title>icon-various-outline-stacked</title><circle cx="6.84" cy="11.56" r="1.82"/><circle cx="11.93" cy="11.56" r="1.82"/><circle cx="9.38" cy="7.2" r="1.82"/><path d="M17.61,16.29V2.72a1.34,1.34,0,0,0-1.34-1.34H2.7A1.34,1.34,0,0,0,1.36,2.72V16.29A1.35,1.35,0,0,0,2.7,17.64H16.27A1.35,1.35,0,0,0,17.61,16.29Zm-15.21,0V2.72a.3.3,0,0,1,.3-.3H16.27a.31.31,0,0,1,.31.3V16.29a.31.31,0,0,1-.31.31H2.7A.3.3,0,0,1,2.4,16.29Z"/><path d="M20.13,18.79V5.21a1.34,1.34,0,0,0-1.34-1.34h-.14v1h.14a.31.31,0,0,1,.3.3V18.79a.31.31,0,0,1-.3.3H5.21a.31.31,0,0,1-.3-.3v-.14h-1v.14a1.34,1.34,0,0,0,1.34,1.34H18.79A1.34,1.34,0,0,0,20.13,18.79Z"/><path d="M21.3,6.36h-.14v1h.14a.3.3,0,0,1,.3.31V21.28a.3.3,0,0,1-.3.3H7.73a.31.31,0,0,1-.31-.3v-.14h-1v.14a1.34,1.34,0,0,0,1.34,1.34H21.3a1.34,1.34,0,0,0,1.34-1.34V7.71A1.35,1.35,0,0,0,21.3,6.36Z"/></svg>