<svg id="Layer_1" data-name="Layer 1" xmlns="http://www.w3.org/2000/svg" viewBox="0 0 24 24"><title>icon-360-outline-stacked</title><path d="M17.61,16.29V2.72a1.34,1.34,0,0,0-1.34-1.34H2.7A1.34,1.34,0,0,0,1.36,2.72V16.29A1.35,1.35,0,0,0,2.7,17.64H16.27A1.35,1.35,0,0,0,17.61,16.29Zm-15.21,0V2.72a.3.3,0,0,1,.3-.3H16.27a.31.31,0,0,1,.31.3V16.29a.31.31,0,0,1-.31.31H2.7A.3.3,0,0,1,2.4,16.29Z"/><path d="M20.13,18.79V5.21a1.34,1.34,0,0,0-1.34-1.34h-.14v1h.14a.31.31,0,0,1,.3.3V18.79a.31.31,0,0,1-.3.3H5.21a.31.31,0,0,1-.3-.3v-.14h-1v.14a1.34,1.34,0,0,0,1.34,1.34H18.79A1.34,1.34,0,0,0,20.13,18.79Z"/><path d="M21.3,6.36h-.14v1h.14a.3.3,0,0,1,.3.31V21.28a.3.3,0,0,1-.3.3H7.73a.31.31,0,0,1-.31-.3v-.14h-1v.14a1.34,1.34,0,0,0,1.34,1.34H21.3a1.34,1.34,0,0,0,1.34-1.34V7.71A1.35,1.35,0,0,0,21.3,6.36Z"/><g id="rotate-left"><path d="M6.73,7.92,6,7.15a4.27,4.27,0,0,0-.88,2.11H6.18A3.4,3.4,0,0,1,6.73,7.92Zm-.55,2.42H5.09A4.27,4.27,0,0,0,6,12.45l.76-.77A3.34,3.34,0,0,1,6.18,10.34Zm.55,2.88a4.37,4.37,0,0,0,2.11.88V13a3.38,3.38,0,0,1-1.33-.56ZM9.92,5.5V3.84L7.46,6.31,9.92,8.72V6.6a3.24,3.24,0,0,1,0,6.4v1.1a4.33,4.33,0,0,0,0-8.6Z"/></g></svg>