<svg id="Layer_1" data-name="Layer 1" xmlns="http://www.w3.org/2000/svg" viewBox="0 0 24 24"><title>icon-sound-outline-stacked</title><path d="M13.05,6.23a.55.55,0,0,0-.78.78,3.37,3.37,0,0,1,0,4.79.54.54,0,0,0,0,.78.6.6,0,0,0,.39.16.5.5,0,0,0,.39-.16,4.45,4.45,0,0,0,0-6.35Z"/><path d="M10.65,7.33a.5.5,0,0,0,0,.73A1.74,1.74,0,0,1,11.2,9.4a2.07,2.07,0,0,1-.55,1.39.5.5,0,0,0,0,.73.71.71,0,0,0,.57.09.42.42,0,0,0,.16-.09,2.9,2.9,0,0,0,.85-2.12V9.12a2.54,2.54,0,0,0-.85-1.79A.5.5,0,0,0,10.65,7.33Z"/><path d="M6.49,7.74H4.78a.38.38,0,0,0-.4.41v2.52a.39.39,0,0,0,.4.42H6.49l2.26,2.14a.4.4,0,0,0,.63-.33v-7a.39.39,0,0,0-.63-.33Z"/><path d="M17.61,16.29V2.72a1.34,1.34,0,0,0-1.34-1.34H2.7A1.34,1.34,0,0,0,1.36,2.72V16.29A1.35,1.35,0,0,0,2.7,17.64H16.27A1.35,1.35,0,0,0,17.61,16.29Zm-15.21,0V2.72a.3.3,0,0,1,.3-.3H16.27a.31.31,0,0,1,.31.3V16.29a.31.31,0,0,1-.31.31H2.7A.3.3,0,0,1,2.4,16.29Z"/><path d="M20.13,18.79V5.21a1.34,1.34,0,0,0-1.34-1.34h-.14v1h.14a.31.31,0,0,1,.3.3V18.79a.31.31,0,0,1-.3.3H5.21a.31.31,0,0,1-.3-.3v-.14h-1v.14a1.34,1.34,0,0,0,1.34,1.34H18.79A1.34,1.34,0,0,0,20.13,18.79Z"/><path d="M21.3,6.36h-.14v1h.14a.3.3,0,0,1,.3.31V21.28a.3.3,0,0,1-.3.3H7.73a.31.31,0,0,1-.31-.3v-.14h-1v.14a1.34,1.34,0,0,0,1.34,1.34H21.3a1.34,1.34,0,0,0,1.34-1.34V7.71A1.35,1.35,0,0,0,21.3,6.36Z"/></svg>